<svg width="32" height="32" viewBox="0 0 32 32" fill="none" xmlns="http://www.w3.org/2000/svg">
<mask id="mask0_7807_5862" style="mask-type:alpha" maskUnits="userSpaceOnUse" x="0" y="0" width="32" height="32">
<rect width="32" height="32" fill="#D9D9D9"/>
</mask>
<g mask="url(#mask0_7807_5862)">
<path d="M5.33073 27.9896C4.5974 27.9896 3.96962 27.7285 3.4474 27.2062C2.92517 26.684 2.66406 26.0562 2.66406 25.3229V10.6562C2.66406 9.92291 2.92517 9.29514 3.4474 8.77292C3.96962 8.25069 4.5974 7.98958 5.33073 7.98958H10.6641V5.32292C10.6641 4.58958 10.9252 3.96181 11.4474 3.43958C11.9696 2.91736 12.5974 2.65625 13.3307 2.65625H18.6641C19.3974 2.65625 20.0252 2.91736 20.5474 3.43958C21.0696 3.96181 21.3307 4.58958 21.3307 5.32292V7.98958H26.6641C27.3974 7.98958 28.0252 8.25069 28.5474 8.77292C29.0696 9.29514 29.3307 9.92291 29.3307 10.6562V25.3229C29.3307 26.0562 29.0696 26.684 28.5474 27.2062C28.0252 27.7285 27.3974 27.9896 26.6641 27.9896H5.33073ZM13.3307 7.98958H18.6641V5.32292H13.3307V7.98958ZM26.6641 19.9896H19.9974V22.6562H11.9974V19.9896H5.33073V25.3229H26.6641V19.9896ZM14.6641 19.9896H17.3307V17.3229H14.6641V19.9896ZM5.33073 17.3229H11.9974V14.6562H19.9974V17.3229H26.6641V10.6562H5.33073V17.3229Z" fill="#5A9E8C"/>
</g>
</svg>
