<svg width="40" height="40" viewBox="0 0 40 40" fill="none" xmlns="http://www.w3.org/2000/svg">
<mask id="mask0_7986_174" style="mask-type:alpha" maskUnits="userSpaceOnUse" x="0" y="0" width="40" height="40">
<rect width="40" height="40" fill="rgba(223, 162, 66, 1)"/>
</mask>
<g mask="url(#mask0_7986_174)">
<path d="M1.66699 33.3346V26.668C1.66699 25.7235 1.99338 24.9319 2.64616 24.293C3.29894 23.6541 4.08366 23.3346 5.00033 23.3346H10.4587C11.0142 23.3346 11.542 23.4735 12.042 23.7513C12.542 24.0291 12.9448 24.4041 13.2503 24.8763C14.0559 25.9596 15.0489 26.8069 16.2295 27.418C17.41 28.0291 18.667 28.3346 20.0003 28.3346C21.3614 28.3346 22.6323 28.0291 23.8128 27.418C24.9934 26.8069 25.9725 25.9596 26.7503 24.8763C27.1114 24.4041 27.535 24.0291 28.0212 23.7513C28.5073 23.4735 29.0142 23.3346 29.542 23.3346H35.0003C35.9448 23.3346 36.7364 23.6541 37.3753 24.293C38.0142 24.9319 38.3337 25.7235 38.3337 26.668V33.3346H26.667V29.543C25.6948 30.2374 24.6462 30.7652 23.5212 31.1263C22.3962 31.4874 21.2225 31.668 20.0003 31.668C18.8059 31.668 17.6392 31.4805 16.5003 31.1055C15.3614 30.7305 14.3059 30.1957 13.3337 29.5013V33.3346H1.66699ZM20.0003 26.668C18.9448 26.668 17.9448 26.4249 17.0003 25.9388C16.0559 25.4527 15.2642 24.7791 14.6253 23.918C14.1531 23.2235 13.5628 22.6749 12.8545 22.2721C12.1462 21.8694 11.3753 21.668 10.542 21.668C11.1531 20.6402 12.4448 19.8277 14.417 19.2305C16.3892 18.6332 18.2503 18.3346 20.0003 18.3346C21.7503 18.3346 23.6114 18.6332 25.5837 19.2305C27.5559 19.8277 28.8476 20.6402 29.4587 21.668C28.6531 21.668 27.8892 21.8694 27.167 22.2721C26.4448 22.6749 25.8475 23.2235 25.3753 23.918C24.7642 24.8069 23.9864 25.4874 23.042 25.9596C22.0975 26.4319 21.0837 26.668 20.0003 26.668ZM6.66699 21.668C5.2781 21.668 4.09755 21.1819 3.12533 20.2096C2.1531 19.2374 1.66699 18.0569 1.66699 16.668C1.66699 15.2513 2.1531 14.0638 3.12533 13.1055C4.09755 12.1471 5.2781 11.668 6.66699 11.668C8.08366 11.668 9.27116 12.1471 10.2295 13.1055C11.1878 14.0638 11.667 15.2513 11.667 16.668C11.667 18.0569 11.1878 19.2374 10.2295 20.2096C9.27116 21.1819 8.08366 21.668 6.66699 21.668ZM33.3337 21.668C31.9448 21.668 30.7642 21.1819 29.792 20.2096C28.8198 19.2374 28.3337 18.0569 28.3337 16.668C28.3337 15.2513 28.8198 14.0638 29.792 13.1055C30.7642 12.1471 31.9448 11.668 33.3337 11.668C34.7503 11.668 35.9378 12.1471 36.8962 13.1055C37.8545 14.0638 38.3337 15.2513 38.3337 16.668C38.3337 18.0569 37.8545 19.2374 36.8962 20.2096C35.9378 21.1819 34.7503 21.668 33.3337 21.668ZM20.0003 16.668C18.6114 16.668 17.4309 16.1819 16.4587 15.2096C15.4864 14.2374 15.0003 13.0569 15.0003 11.668C15.0003 10.2513 15.4864 9.0638 16.4587 8.10547C17.4309 7.14714 18.6114 6.66797 20.0003 6.66797C21.417 6.66797 22.6045 7.14714 23.5628 8.10547C24.5212 9.0638 25.0003 10.2513 25.0003 11.668C25.0003 13.0569 24.5212 14.2374 23.5628 15.2096C22.6045 16.1819 21.417 16.668 20.0003 16.668Z" fill="rgba(223, 162, 66, 1)"/>
</g>
</svg>
