<svg width="40" height="40" viewBox="0 0 40 40" fill="none" xmlns="http://www.w3.org/2000/svg">
<path d="M36.1831 14.5174C38.2665 12.4341 37.3165 10.0008 36.1831 8.81744L31.1831 3.81744C29.0831 1.73411 26.6665 2.68411 25.4831 3.81744L22.6498 6.66744H18.3331C15.1665 6.66744 13.3331 8.33411 12.3998 10.2508L4.9998 17.6508V24.3174L3.81647 25.4841C1.73313 27.5841 2.68313 30.0008 3.81647 31.1841L8.81647 36.1841C9.71647 37.0841 10.6831 37.4174 11.5998 37.4174C12.7831 37.4174 13.8665 36.8341 14.5165 36.1841L19.0165 31.6674H24.9998C27.8331 31.6674 29.2665 29.9008 29.7831 28.1674C31.6665 27.6674 32.6998 26.2341 33.1165 24.8341C35.6998 24.1674 36.6665 21.7174 36.6665 20.0008V15.0008H35.6831L36.1831 14.5174ZM33.3331 20.0008C33.3331 20.7508 33.0165 21.6674 31.6665 21.6674H29.9998V23.3341C29.9998 24.0841 29.6831 25.0008 28.3331 25.0008H26.6665V26.6674C26.6665 27.4174 26.3498 28.3341 24.9998 28.3341H17.6498L12.1831 33.8008C11.6665 34.2841 11.3665 34.0008 11.1831 33.8174L6.1998 28.8508C5.71647 28.3341 5.9998 28.0341 6.18313 27.8508L8.33313 25.6841V19.0174L11.6665 15.6841V18.3341C11.6665 20.3508 12.9998 23.3341 16.6665 23.3341C20.3331 23.3341 21.6665 20.3508 21.6665 18.3341H33.3331V20.0008ZM33.8165 12.1508L30.9831 15.0008H18.3331V18.3341C18.3331 19.0841 18.0165 20.0008 16.6665 20.0008C15.3165 20.0008 14.9998 19.0841 14.9998 18.3341V13.3341C14.9998 12.5674 15.2831 10.0008 18.3331 10.0008H24.0165L27.8165 6.20078C28.3331 5.71744 28.6331 6.00078 28.8165 6.18411L33.7998 11.1508C34.2831 11.6674 33.9998 11.9674 33.8165 12.1508Z" fill="rgba(194, 84, 80, 1)"/>
</svg>
