<svg width="40" height="40" viewBox="0 0 40 40" fill="none" xmlns="http://www.w3.org/2000/svg">
<mask id="mask0_7986_163" style="mask-type:alpha" maskUnits="userSpaceOnUse" x="0" y="0" width="40" height="40">
<rect width="40" height="40" fill="#D9D9D9"/>
</mask>
<g mask="url(#mask0_7986_163)">
<path d="M19.9997 36.6654L18.333 31.6654H6.66634C5.74967 31.6654 4.96495 31.339 4.31217 30.6862C3.6594 30.0334 3.33301 29.2487 3.33301 28.332V6.66536C3.33301 5.7487 3.6594 4.96398 4.31217 4.3112C4.96495 3.65842 5.74967 3.33203 6.66634 3.33203H16.6663L18.1247 8.33203H33.333C34.3052 8.33203 35.1038 8.64453 35.7288 9.26953C36.3538 9.89453 36.6663 10.6931 36.6663 11.6654V33.332C36.6663 34.2487 36.3538 35.0334 35.7288 35.6862C35.1038 36.339 34.3052 36.6654 33.333 36.6654H19.9997ZM11.9163 24.332C13.833 24.332 15.4094 23.714 16.6455 22.4779C17.8816 21.2418 18.4997 19.6376 18.4997 17.6654C18.4997 17.4431 18.4927 17.2418 18.4788 17.0612C18.465 16.8806 18.4302 16.6931 18.3747 16.4987H11.7913V19.082H15.4997C15.2775 19.8598 14.8538 20.464 14.2288 20.8945C13.6038 21.3251 12.8469 21.5404 11.958 21.5404C10.8747 21.5404 9.94412 21.1515 9.16634 20.3737C8.38856 19.5959 7.99967 18.6376 7.99967 17.4987C7.99967 16.3598 8.38856 15.4015 9.16634 14.6237C9.94412 13.8459 10.8747 13.457 11.958 13.457C12.458 13.457 12.9302 13.5473 13.3747 13.7279C13.8191 13.9084 14.2219 14.1793 14.583 14.5404L16.6247 12.582C16.0413 11.9709 15.34 11.4987 14.5205 11.1654C13.7011 10.832 12.833 10.6654 11.9163 10.6654C10.0552 10.6654 8.46495 11.3251 7.14551 12.6445C5.82606 13.964 5.16634 15.582 5.16634 17.4987C5.16634 19.4154 5.82606 21.0334 7.14551 22.3529C8.46495 23.6723 10.0552 24.332 11.9163 24.332ZM23.083 25.1654L23.9997 24.2904C23.6108 23.8181 23.2566 23.3598 22.9372 22.9154C22.6177 22.4709 22.3052 21.9987 21.9997 21.4987L23.083 25.1654ZM25.1663 23.0404C25.9441 22.1237 26.5344 21.2487 26.9372 20.4154C27.34 19.582 27.6108 18.9293 27.7497 18.457H21.1247L21.6247 20.207H23.2913C23.5136 20.6237 23.7775 21.0751 24.083 21.5612C24.3886 22.0473 24.7497 22.5404 25.1663 23.0404ZM21.6663 34.9987H33.333C33.833 34.9987 34.2358 34.839 34.5413 34.5195C34.8469 34.2001 34.9997 33.8043 34.9997 33.332V11.6654C34.9997 11.1654 34.8469 10.7626 34.5413 10.457C34.2358 10.1515 33.833 9.9987 33.333 9.9987H18.6247L20.583 16.7487H23.8747V14.9987H25.583V16.7487H31.6663V18.457H29.5413C29.2636 19.5126 28.8469 20.5404 28.2913 21.5404C27.7358 22.5404 27.083 23.4709 26.333 24.332L30.8747 28.7904L29.6663 29.9987L25.1663 25.4987L23.6663 27.0404L24.9997 31.6654L21.6663 34.9987Z" fill="#084385"/>
</g>
</svg>
