<svg width="32" height="32" viewBox="0 0 32 32" fill="none" xmlns="http://www.w3.org/2000/svg">
<mask id="mask0_7807_5865" style="mask-type:alpha" maskUnits="userSpaceOnUse" x="0" y="0" width="32" height="32">
<rect width="32" height="32" fill="#D9D9D9"/>
</mask>
<g mask="url(#mask0_7807_5865)">
<path d="M16.0026 15.9896C16.7359 15.9896 17.3637 15.7285 17.8859 15.2063C18.4082 14.684 18.6693 14.0563 18.6693 13.3229C18.6693 12.5896 18.4082 11.9618 17.8859 11.4396C17.3637 10.9174 16.7359 10.6563 16.0026 10.6563C15.2693 10.6563 14.6415 10.9174 14.1193 11.4396C13.597 11.9618 13.3359 12.5896 13.3359 13.3229C13.3359 14.0563 13.597 14.684 14.1193 15.2063C14.6415 15.7285 15.2693 15.9896 16.0026 15.9896ZM16.0026 25.7896C18.7137 23.3007 20.7248 21.0396 22.0359 19.0063C23.347 16.9729 24.0026 15.1674 24.0026 13.5896C24.0026 11.1674 23.2304 9.18403 21.6859 7.63958C20.1415 6.09514 18.247 5.32292 16.0026 5.32292C13.7582 5.32292 11.8637 6.09514 10.3193 7.63958C8.77483 9.18403 8.0026 11.1674 8.0026 13.5896C8.0026 15.1674 8.65816 16.9729 9.96927 19.0063C11.2804 21.0396 13.2915 23.3007 16.0026 25.7896ZM16.0026 29.3229C12.4248 26.2785 9.7526 23.4507 7.98594 20.8396C6.21927 18.2285 5.33594 15.8118 5.33594 13.5896C5.33594 10.2563 6.40816 7.6007 8.5526 5.62292C10.697 3.64514 13.1804 2.65625 16.0026 2.65625C18.8248 2.65625 21.3082 3.64514 23.4526 5.62292C25.597 7.6007 26.6693 10.2563 26.6693 13.5896C26.6693 15.8118 25.7859 18.2285 24.0193 20.8396C22.2526 23.4507 19.5804 26.2785 16.0026 29.3229Z" fill="#5A9E8C"/>
</g>
</svg>
