<svg width="87" height="84" viewBox="0 0 87 84" fill="none" xmlns="http://www.w3.org/2000/svg">
<path d="M32.9042 9.15041L32.1524 13.0841H19.4459C19.0729 13.0841 18.7233 13.2866 18.5368 13.6099C18.3503 13.9351 18.3503 14.3382 18.5368 14.6634L28.5295 32.0514L25.027 50.38C24.9609 50.7228 24.5122 50.8124 24.3199 50.5222L2.10046 16.6926C1.95282 16.4667 2.07132 16.1648 2.33357 16.1006L32.4302 8.69862C32.7041 8.63241 32.9567 8.87193 32.9042 9.15041Z" fill="#5A9E8C"/>
<path d="M83.2837 11.647L59.9181 50.0783C59.6675 50.4912 59.0401 50.3607 58.974 49.8816L56.5166 32.0379L66.4997 14.6655C66.6861 14.3403 66.6861 13.9372 66.4977 13.6119C66.3112 13.2887 65.9635 13.0862 65.5886 13.0862H53.9058L52.1827 0.582113C52.1303 0.200429 52.5013 -0.0994651 52.8626 0.0310085L83.0195 10.8973C83.3245 11.0083 83.4527 11.3705 83.2837 11.647Z" fill="#084385"/>
<path d="M65.9094 14.3226L56.3635 30.9336L42.8372 54.4695C42.7653 54.5941 42.641 54.6545 42.5167 54.6545C42.3923 54.6545 42.2661 54.5941 42.1961 54.4695L28.7242 31.0251L19.1239 14.3226C18.9821 14.0753 19.1608 13.7656 19.4444 13.7656H65.587C65.8725 13.7656 66.0512 14.0753 65.9094 14.3226Z" fill="url(#paint0_linear_7761_928)"/>
<defs>
<linearGradient id="paint0_linear_7761_928" x1="25.414" y1="37.3521" x2="66.315" y2="14.3772" gradientUnits="userSpaceOnUse">
<stop offset="0.15" stop-color="#CE6C39"/>
<stop offset="0.92" stop-color="#DFA242"/>
</linearGradient>
</defs>
</svg>
