<svg width="32" height="32" viewBox="0 0 32 32" fill="none" xmlns="http://www.w3.org/2000/svg">
<mask id="mask0_7807_5861" style="mask-type:alpha" maskUnits="userSpaceOnUse" x="0" y="0" width="32" height="32">
<rect width="32" height="32" fill="#D9D9D9"/>
</mask>
<g mask="url(#mask0_7807_5861)">
<path d="M14.7974 25.3229H17.1307V23.6563C18.2418 23.4563 19.1974 23.0229 19.9974 22.3563C20.7974 21.6896 21.1974 20.7007 21.1974 19.3896C21.1974 18.4563 20.9307 17.6007 20.3974 16.8229C19.8641 16.0451 18.7974 15.3674 17.1974 14.7896C15.8641 14.3451 14.9418 13.9563 14.4307 13.6229C13.9196 13.2896 13.6641 12.834 13.6641 12.2563C13.6641 11.6785 13.8696 11.2229 14.2807 10.8896C14.6918 10.5563 15.2863 10.3896 16.0641 10.3896C16.7752 10.3896 17.3307 10.5618 17.7307 10.9063C18.1307 11.2507 18.4196 11.6785 18.5974 12.1896L20.7307 11.3229C20.4863 10.5451 20.0363 9.86736 19.3807 9.28958C18.7252 8.71181 17.9974 8.38958 17.1974 8.32292V6.65625H14.8641V8.32292C13.753 8.56736 12.8863 9.05625 12.2641 9.78958C11.6418 10.5229 11.3307 11.3451 11.3307 12.2563C11.3307 13.3007 11.6363 14.1451 12.2474 14.7896C12.8585 15.434 13.8196 15.9896 15.1307 16.4563C16.5307 16.9674 17.503 17.4229 18.0474 17.8229C18.5918 18.2229 18.8641 18.7451 18.8641 19.3896C18.8641 20.1229 18.603 20.6618 18.0807 21.0063C17.5585 21.3507 16.9307 21.5229 16.1974 21.5229C15.4641 21.5229 14.8141 21.2951 14.2474 20.8396C13.6807 20.384 13.2641 19.7007 12.9974 18.7896L10.7974 19.6563C11.1085 20.7229 11.5918 21.584 12.2474 22.2396C12.903 22.8951 13.753 23.3451 14.7974 23.5896V25.3229ZM15.9974 29.3229C14.153 29.3229 12.4196 28.9729 10.7974 28.2729C9.17517 27.5729 7.76406 26.6229 6.56406 25.4229C5.36406 24.2229 4.41406 22.8118 3.71406 21.1896C3.01406 19.5674 2.66406 17.834 2.66406 15.9896C2.66406 14.1451 3.01406 12.4118 3.71406 10.7896C4.41406 9.16736 5.36406 7.75625 6.56406 6.55625C7.76406 5.35625 9.17517 4.40625 10.7974 3.70625C12.4196 3.00625 14.153 2.65625 15.9974 2.65625C17.8418 2.65625 19.5752 3.00625 21.1974 3.70625C22.8196 4.40625 24.2307 5.35625 25.4307 6.55625C26.6307 7.75625 27.5807 9.16736 28.2807 10.7896C28.9807 12.4118 29.3307 14.1451 29.3307 15.9896C29.3307 17.834 28.9807 19.5674 28.2807 21.1896C27.5807 22.8118 26.6307 24.2229 25.4307 25.4229C24.2307 26.6229 22.8196 27.5729 21.1974 28.2729C19.5752 28.9729 17.8418 29.3229 15.9974 29.3229ZM15.9974 26.6563C18.9752 26.6563 21.4974 25.6229 23.5641 23.5563C25.6307 21.4896 26.6641 18.9674 26.6641 15.9896C26.6641 13.0118 25.6307 10.4896 23.5641 8.42292C21.4974 6.35625 18.9752 5.32292 15.9974 5.32292C13.0196 5.32292 10.4974 6.35625 8.43073 8.42292C6.36406 10.4896 5.33073 13.0118 5.33073 15.9896C5.33073 18.9674 6.36406 21.4896 8.43073 23.5563C10.4974 25.6229 13.0196 26.6563 15.9974 26.6563Z" fill="#5A9E8C"/>
</g>
</svg>
