<svg width="24" height="24" viewBox="0 0 24 24" fill="none" xmlns="http://www.w3.org/2000/svg">
<mask id="mask0_7807_7161" style="mask-type:alpha" maskUnits="userSpaceOnUse" x="0" y="0" width="24" height="25">
<rect y="0.00390625" width="24" height="24" fill="#D9D9D9"/>
</mask>
<g mask="url(#mask0_7807_7161)">
<path d="M10.275 12.0039C9.80833 12.0039 9.425 11.8289 9.125 11.4789C8.825 11.1289 8.71667 10.7206 8.8 10.2539L9.1 8.45391C9.23333 7.73724 9.57083 7.14974 10.1125 6.69141C10.6542 6.23307 11.2833 6.00391 12 6.00391C12.7333 6.00391 13.3708 6.23307 13.9125 6.69141C14.4542 7.14974 14.7917 7.73724 14.925 8.45391L15.225 10.2539C15.3083 10.7206 15.2 11.1289 14.9 11.4789C14.6 11.8289 14.2167 12.0039 13.75 12.0039H10.275ZM10.875 10.0039H13.15L12.95 8.77891C12.9167 8.54557 12.8083 8.35807 12.625 8.21641C12.4417 8.07474 12.2333 8.00391 12 8.00391C11.7667 8.00391 11.5625 8.07474 11.3875 8.21641C11.2125 8.35807 11.1083 8.54557 11.075 8.77891L10.875 10.0039ZM3.1 12.9789C2.71667 12.9956 2.3875 12.9206 2.1125 12.7539C1.8375 12.5872 1.65833 12.3289 1.575 11.9789C1.54167 11.8289 1.53333 11.6789 1.55 11.5289C1.56667 11.3789 1.60833 11.2372 1.675 11.1039C1.675 11.1206 1.66667 11.0872 1.65 11.0039C1.61667 10.9706 1.53333 10.7706 1.4 10.4039C1.36667 10.2039 1.39167 10.0122 1.475 9.82891C1.55833 9.64557 1.66667 9.48724 1.8 9.35391L1.85 9.30391C1.88333 8.98724 2.0125 8.72057 2.2375 8.50391C2.4625 8.28724 2.74167 8.17891 3.075 8.17891C3.125 8.17891 3.28333 8.21224 3.55 8.27891L3.625 8.25391C3.70833 8.17057 3.81667 8.10807 3.95 8.06641C4.08333 8.02474 4.225 8.00391 4.375 8.00391C4.55833 8.00391 4.72083 8.03307 4.8625 8.09141C5.00417 8.14974 5.11667 8.23724 5.2 8.35391C5.21667 8.35391 5.22917 8.35807 5.2375 8.36641C5.24583 8.37474 5.25833 8.37891 5.275 8.37891C5.50833 8.39557 5.7125 8.46641 5.8875 8.59141C6.0625 8.71641 6.19167 8.88724 6.275 9.10391C6.30833 9.22057 6.32083 9.33307 6.3125 9.44141C6.30417 9.54974 6.28333 9.65391 6.25 9.75391C6.25 9.77057 6.25833 9.80391 6.275 9.85391C6.39167 9.97057 6.48333 10.0997 6.55 10.2414C6.61667 10.3831 6.65 10.5289 6.65 10.6789C6.65 10.7456 6.6 10.9206 6.5 11.2039C6.48333 11.2372 6.48333 11.2706 6.5 11.3039L6.55 11.7039C6.55 12.0539 6.40417 12.3539 6.1125 12.6039C5.82083 12.8539 5.46667 12.9789 5.05 12.9789H3.1ZM20 13.0039C19.45 13.0039 18.9792 12.8081 18.5875 12.4164C18.1958 12.0247 18 11.5539 18 11.0039C18 10.8039 18.0292 10.6164 18.0875 10.4414C18.1458 10.2664 18.225 10.0956 18.325 9.92891L17.625 9.30391C17.4583 9.17057 17.4292 9.00391 17.5375 8.80391C17.6458 8.60391 17.8 8.50391 18 8.50391H20C20.55 8.50391 21.0208 8.69974 21.4125 9.09141C21.8042 9.48307 22 9.95391 22 10.5039V11.0039C22 11.5539 21.8042 12.0247 21.4125 12.4164C21.0208 12.8081 20.55 13.0039 20 13.0039ZM0 18.0039V16.4289C0 15.6956 0.370833 15.1081 1.1125 14.6664C1.85417 14.2247 2.81667 14.0039 4 14.0039C4.21667 14.0039 4.425 14.0081 4.625 14.0164C4.825 14.0247 5.01667 14.0456 5.2 14.0789C4.96667 14.4122 4.79167 14.7706 4.675 15.1539C4.55833 15.5372 4.5 15.9456 4.5 16.3789V18.0039H0ZM6 18.0039V16.3789C6 15.2956 6.55417 14.4206 7.6625 13.7539C8.77083 13.0872 10.2167 12.7539 12 12.7539C13.8 12.7539 15.25 13.0872 16.35 13.7539C17.45 14.4206 18 15.2956 18 16.3789V18.0039H6ZM20 14.0039C21.2 14.0039 22.1667 14.2247 22.9 14.6664C23.6333 15.1081 24 15.6956 24 16.4289V18.0039H19.5V16.3789C19.5 15.9456 19.4458 15.5372 19.3375 15.1539C19.2292 14.7706 19.0667 14.4122 18.85 14.0789C19.0333 14.0456 19.2208 14.0247 19.4125 14.0164C19.6042 14.0081 19.8 14.0039 20 14.0039ZM12 14.7539C11.05 14.7539 10.2 14.8789 9.45 15.1289C8.7 15.3789 8.25833 15.6706 8.125 16.0039H15.9C15.75 15.6706 15.3042 15.3789 14.5625 15.1289C13.8208 14.8789 12.9667 14.7539 12 14.7539Z" fill="#5A9E8C"/>
</g>
</svg>
