<svg width="32" height="32" viewBox="0 0 32 32" fill="none" xmlns="http://www.w3.org/2000/svg">
<mask id="mask0_7807_5868" style="mask-type:alpha" maskUnits="userSpaceOnUse" x="0" y="0" width="32" height="32">
<rect width="32" height="32" fill="#D9D9D9"/>
</mask>
<g mask="url(#mask0_7807_5868)">
<path d="M23.4026 16.0104L18.6693 11.2771L20.5693 9.41042L23.4026 12.2437L29.0693 6.57708L30.9359 8.47708L23.4026 16.0104ZM12.0026 16.0104C10.5359 16.0104 9.28038 15.4882 8.23594 14.4437C7.19149 13.3993 6.66927 12.1437 6.66927 10.6771C6.66927 9.21042 7.19149 7.95486 8.23594 6.91042C9.28038 5.86597 10.5359 5.34375 12.0026 5.34375C13.4693 5.34375 14.7248 5.86597 15.7693 6.91042C16.8137 7.95486 17.3359 9.21042 17.3359 10.6771C17.3359 12.1437 16.8137 13.3993 15.7693 14.4437C14.7248 15.4882 13.4693 16.0104 12.0026 16.0104ZM1.33594 26.6771V22.9437C1.33594 22.1882 1.53038 21.4937 1.91927 20.8604C2.30816 20.2271 2.82483 19.7437 3.46927 19.4104C4.84705 18.7215 6.24705 18.2049 7.66927 17.8604C9.09149 17.516 10.5359 17.3437 12.0026 17.3437C13.4693 17.3437 14.9137 17.516 16.3359 17.8604C17.7582 18.2049 19.1582 18.7215 20.5359 19.4104C21.1804 19.7437 21.697 20.2271 22.0859 20.8604C22.4748 21.4937 22.6693 22.1882 22.6693 22.9437V26.6771H1.33594ZM4.0026 24.0104H20.0026V22.9437C20.0026 22.6993 19.9415 22.4771 19.8193 22.2771C19.697 22.0771 19.5359 21.9215 19.3359 21.8104C18.1359 21.2104 16.9248 20.7604 15.7026 20.4604C14.4804 20.1604 13.247 20.0104 12.0026 20.0104C10.7582 20.0104 9.52482 20.1604 8.3026 20.4604C7.08038 20.7604 5.86927 21.2104 4.66927 21.8104C4.46927 21.9215 4.30816 22.0771 4.18594 22.2771C4.06371 22.4771 4.0026 22.6993 4.0026 22.9437V24.0104ZM12.0026 13.3437C12.7359 13.3437 13.3637 13.0826 13.8859 12.5604C14.4082 12.0382 14.6693 11.4104 14.6693 10.6771C14.6693 9.94375 14.4082 9.31597 13.8859 8.79375C13.3637 8.27153 12.7359 8.01042 12.0026 8.01042C11.2693 8.01042 10.6415 8.27153 10.1193 8.79375C9.59705 9.31597 9.33594 9.94375 9.33594 10.6771C9.33594 11.4104 9.59705 12.0382 10.1193 12.5604C10.6415 13.0826 11.2693 13.3437 12.0026 13.3437Z" fill="#5A9E8C"/>
</g>
</svg>
