<svg width="40" height="40" viewBox="0 0 40 40" fill="none" xmlns="http://www.w3.org/2000/svg">
<mask id="mask0_7986_152" style="mask-type:alpha" maskUnits="userSpaceOnUse" x="0" y="0" width="40" height="40">
<rect width="40" height="40" fill="#D9D9D9"/>
</mask>
<g mask="url(#mask0_7986_152)">
<path d="M12.875 23.7904C13.6806 24.5959 14.6667 24.9987 15.8333 24.9987C17 24.9987 17.9861 24.5959 18.7917 23.7904L25.4583 17.1237C26.2639 16.3181 26.6667 15.332 26.6667 14.1654C26.6667 12.9987 26.2639 12.0126 25.4583 11.207C24.6528 10.4015 23.6667 9.9987 22.5 9.9987C21.3333 9.9987 20.3472 10.4015 19.5417 11.207C18.5139 10.8459 17.5 10.7626 16.5 10.957C15.5 11.1515 14.6528 11.5959 13.9583 12.2904C13.2639 12.9848 12.8194 13.832 12.625 14.832C12.4306 15.832 12.5139 16.8459 12.875 17.8737C12.0694 18.6793 11.6667 19.6654 11.6667 20.832C11.6667 21.9987 12.0694 22.9848 12.875 23.7904ZM10 36.6654V29.4987C8.41667 28.0543 7.1875 26.3668 6.3125 24.4362C5.4375 22.5056 5 20.4709 5 18.332C5 14.1654 6.45833 10.6237 9.375 7.70703C12.2917 4.79036 15.8333 3.33203 20 3.33203C23.4722 3.33203 26.5486 4.35286 29.2292 6.39453C31.9097 8.4362 33.6528 11.0959 34.4583 14.3737L36.625 22.9154C36.7639 23.4431 36.6667 23.9223 36.3333 24.3529C36 24.7834 35.5556 24.9987 35 24.9987H31.6667V29.9987C31.6667 30.9154 31.3403 31.7001 30.6875 32.3529C30.0347 33.0056 29.25 33.332 28.3333 33.332H25V36.6654H21.6667V29.9987H28.3333V21.6654H32.8333L31.25 15.207C30.6111 12.6793 29.25 10.6237 27.1667 9.04036C25.0833 7.45703 22.6944 6.66536 20 6.66536C16.7778 6.66536 14.0278 7.79036 11.75 10.0404C9.47222 12.2904 8.33333 15.0265 8.33333 18.2487C8.33333 19.9154 8.67361 21.4987 9.35417 22.9987C10.0347 24.4987 11 25.832 12.25 26.9987L13.3333 27.9987V36.6654H10Z" fill="#CE6C39"/>
</g>
</svg>
