<svg width="54" height="32" viewBox="0 0 54 32" fill="none" xmlns="http://www.w3.org/2000/svg">
<path d="M27.8723 28.0452C27.493 27.7417 27.4172 27.3624 27.5689 26.7176L34.8519 1.49248C34.9657 0.999357 35.383 0.657959 35.914 0.657959H53.0595C53.7423 0.657959 54.0078 0.96142 54.0078 1.60627V4.18567C53.9699 4.67879 53.8181 5.13399 53.5526 5.51331L34.5105 30.6246C34.2071 31.0798 33.5622 31.2315 33.0691 30.9281L27.8723 28.0452ZM1.1679 28.0452C0.788574 27.7417 0.712715 27.3624 0.864445 26.7176L8.14748 1.49248C8.26128 0.961424 8.7544 0.620028 9.28545 0.657959H26.3551C27.0378 0.657959 27.3034 0.96142 27.3034 1.60627V4.18567C27.2654 4.67879 27.1137 5.13399 26.8482 5.51331L7.88195 30.6246C7.57849 31.0798 6.93364 31.2315 6.44052 30.8901L1.1679 28.0452Z" fill="white"/>
</svg>
