<svg width="87" height="84" viewBox="0 0 87 84" fill="none" xmlns="http://www.w3.org/2000/svg">
<path d="M32.9042 9.15041L32.1524 13.0841H19.4459C19.0729 13.0841 18.7233 13.2866 18.5368 13.6099C18.3503 13.9351 18.3503 14.3382 18.5368 14.6634L28.5295 32.0514L25.027 50.38C24.9609 50.7228 24.5122 50.8124 24.3199 50.5222L2.10046 16.6926C1.95282 16.4667 2.07132 16.1648 2.33357 16.1006L32.4302 8.69862C32.7041 8.63241 32.9567 8.87193 32.9042 9.15041Z" fill="#5A9E8C"/>
<path d="M83.2837 11.647L59.9181 50.0783C59.6675 50.4912 59.0401 50.3607 58.974 49.8816L56.5166 32.0379L66.4997 14.6655C66.6861 14.3403 66.6861 13.9372 66.4977 13.6119C66.3112 13.2887 65.9635 13.0862 65.5886 13.0862H53.9058L52.1827 0.582113C52.1303 0.200429 52.5013 -0.0994651 52.8626 0.0310085L83.0195 10.8973C83.3245 11.0083 83.4527 11.3705 83.2837 11.647Z" fill="#084385"/>
<path d="M0.392578 60.8047L5.73278 68.2826L11.1487 60.8047V72.2182C10.7369 72.1208 10.3154 72.1325 9.89382 72.1403V64.5845L5.73278 70.3312L1.72714 64.5845V72.1014C1.72714 72.2805 0.392578 72.2805 0.392578 72.1014V60.8066V60.8047Z" fill="#084385"/>
<path d="M40.5156 61.038H41.654C41.7395 61.038 41.7667 61.2308 41.7764 61.3087C42.0406 63.5735 41.2965 67.5072 42.0056 69.5013C42.9128 72.0524 47.2059 71.6862 47.5031 68.7126C47.7324 66.403 47.2215 63.5696 47.4993 61.3107C47.507 61.2445 47.4973 61.1705 47.5381 61.112C47.6022 61.0186 48.8532 60.9076 48.8397 61.2347C48.7017 63.6358 49.03 66.2473 48.8299 68.623C48.5871 71.5071 46.2288 72.8352 43.5131 72.2412C42.1649 71.9472 40.5176 70.5879 40.5176 69.104V61.0361L40.5156 61.038Z" fill="#084385"/>
<path d="M82.0946 60.8826C81.8693 60.8106 81.7411 61.2682 81.6478 61.461C80.0063 64.8806 78.7106 68.4812 77.0652 71.9028L77.0283 72.2202H78.2463C78.3959 72.2202 79.3303 69.8016 79.474 69.4763C81.1427 69.4822 82.8483 69.4082 84.4957 69.5134L85.704 72.2202H86.9997L82.0927 60.8846L82.0946 60.8826ZM80.0141 68.2846L81.9392 63.7199L83.9401 68.2846H80.0141Z" fill="#084385"/>
<path d="M18.8448 60.7227L13.8193 72.2141C14.0291 72.1673 15.0568 72.1751 15.1422 72.1225C15.2666 72.0446 16.0669 69.7487 16.3059 69.4566C17.961 69.4936 19.653 69.3943 21.2867 69.5072C21.4499 69.8188 22.3473 72.2141 22.495 72.2141H23.7907L18.8429 60.7227H18.8448ZM16.8032 68.2804L18.8448 63.6359L20.7311 68.2804H16.8051H16.8032Z" fill="#084385"/>
<path d="M37.5333 61.0352V62.2951H32.5078V65.7595H37.2186V66.9396H32.5078V69.2608C32.5078 69.2939 32.603 69.7905 32.6224 69.8548C33.1897 71.7262 36.2823 70.6162 37.6907 71.0329V72.1351C35.7908 72.0027 32.5311 72.9238 31.5268 70.7175C31.4647 70.5792 31.251 69.921 31.251 69.8119V61.1539C31.251 61.1539 31.3598 61.0352 31.3695 61.0352H37.5333Z" fill="#084385"/>
<path d="M71.0235 60.8477C72.6553 60.8399 74.2249 61.4981 75.3011 62.7328C75.1146 62.8808 74.6406 63.5137 74.4114 63.4689C74.3628 63.4591 73.8014 62.9256 73.646 62.8185C71.0565 61.0366 67.3423 62.3861 66.6876 65.5117C65.6716 70.3587 71.1109 73.1122 74.4871 69.7043C74.5357 69.6966 75.237 70.2847 75.2642 70.3275C75.3963 70.532 75.0136 70.828 74.8698 70.9604C72.1366 73.5037 67.3636 72.5611 65.8095 69.1766C64.0029 65.241 66.6915 60.8711 71.0196 60.8497L71.0235 60.8477Z" fill="#084385"/>
<path d="M55.5135 62.2951V72.213H54.2567V62.2951H51.3117C51.0475 62.2951 51.3059 61.2241 51.2728 61.0352H58.4585C58.6372 61.0352 58.6372 62.2951 58.4585 62.2951H55.5135Z" fill="#084385"/>
<path d="M68.5508 76.5391L73.1839 81.6548V76.8935C73.1839 76.7202 74.0483 76.7202 74.0483 76.8935V83.6236L69.3375 78.5078V83.4678H68.5527V76.541L68.5508 76.5391Z" fill="#084385"/>
<path d="M27.7965 72.1332C27.4371 72.0592 26.9573 72.2053 26.6387 72.1975C26.5649 72.1955 26.4619 72.1429 26.4619 72.0943V61.0352H27.6799C27.6799 61.0352 27.7984 61.1442 27.7984 61.1539V72.1351L27.7965 72.1332Z" fill="#084385"/>
<path d="M60.736 77.8048C57.7192 81.3393 62.9778 85.8124 66.0102 82.5019C69.163 79.0551 63.7684 74.2509 60.736 77.8048ZM63.4829 82.9245C60.093 83.0764 59.6734 77.7756 62.9584 77.357C66.8688 76.8584 67.2224 82.7551 63.4829 82.9245Z" fill="#084385"/>
<path d="M61.168 72.2165V61.1574C61.168 61.0152 62.4248 60.8964 62.4248 61.2353L62.3063 72.2165H61.168Z" fill="#084385"/>
<path d="M25.7847 77.1026C25.604 77.0188 24.8503 76.7773 24.6949 76.7773H21.9072V83.4685H24.4598C27.7914 83.4685 28.6869 78.4326 25.7847 77.1026ZM25.5457 82.4305C25.4214 82.4968 24.7046 82.7597 24.6172 82.7597H22.7328C22.7328 82.7597 22.6143 82.6506 22.6143 82.6409V77.603C22.6143 77.5816 22.7056 77.5251 22.7328 77.4842H24.6968C24.8386 77.4842 25.5515 77.79 25.705 77.8912C27.1697 78.8669 27.1231 81.6029 25.5477 82.4286L25.5457 82.4305Z" fill="#084385"/>
<path d="M3.08096 80.753C4.14356 80.0402 4.64669 78.9692 4.01923 77.7501C3.81332 77.349 3.23637 76.8543 2.78763 76.7803C1.98339 76.6479 0.843087 76.8796 0 76.7803V83.4715C0.147637 83.4656 0.784809 83.526 0.784809 83.3527V80.7938H1.92317C1.98922 80.7938 2.29421 80.9126 2.34666 80.9983L3.70259 83.4559L4.63309 83.4676L3.08096 80.751V80.753ZM2.08052 80.1629H0.823661C0.823661 80.1629 0.705163 80.0538 0.705163 80.0441V77.4853C1.46472 77.5047 2.22233 77.238 2.93138 77.6547C3.72396 78.1201 3.69482 79.5261 2.88087 79.9409C2.75655 80.0032 2.18931 80.161 2.08052 80.161V80.1629Z" fill="#084385"/>
<path d="M6.90981 76.7773V79.5329H10.6007V76.7773H11.3856V83.4685H10.6007V80.2417C9.96163 80.1619 9.28949 80.3235 8.67563 80.3274C8.45612 80.3274 6.90981 80.082 6.90981 80.3605V83.4704H6.125V76.7793H6.90981V76.7773Z" fill="#084385"/>
<path d="M29.9957 76.7773V81.3829C29.9957 81.4413 30.1511 81.9632 30.1919 82.0528C30.6446 83.0595 32.5153 83.1102 33.1253 82.2358C33.203 82.1229 33.4516 81.564 33.4516 81.4627V76.7793H34.2364V81.6983C34.2364 81.821 33.9217 82.4948 33.8304 82.6292C32.8941 84.0099 30.2327 83.9008 29.4596 82.3916C29.4052 82.2864 29.209 81.7684 29.209 81.6983V76.7793H29.9938L29.9957 76.7773Z" fill="#084385"/>
<path d="M45.8569 76.5391L42.873 83.4658C43.0634 83.4269 43.6015 83.5301 43.7239 83.4542C43.8366 83.384 44.2639 81.906 44.4951 81.8262C44.87 81.8476 47.3527 81.7385 47.4362 81.8593C47.5392 82.0637 47.9937 83.4094 48.0676 83.4561C48.1763 83.5262 48.7377 83.4269 48.9204 83.4658L45.8588 76.5391H45.8569ZM44.7574 81.1037L45.8569 78.3482L47.1118 81.1037H44.7554H44.7574Z" fill="#084385"/>
<path d="M78.6765 76.6172C78.4919 76.5783 78.5502 76.6425 78.5016 76.7185C78.4259 76.8353 78.3365 77.0554 78.2705 77.1936C77.4254 78.9988 76.4386 81.1468 75.7334 82.9948C75.6751 83.1467 75.6013 83.2947 75.6149 83.4661C75.7917 83.4291 76.2735 83.5265 76.3881 83.4544C76.5163 83.3726 76.9475 81.9004 77.1593 81.8264C77.54 81.8459 80.0032 81.7388 80.0984 81.8634C80.2305 82.062 80.6598 83.3999 80.7278 83.4583C80.7939 83.5167 81.4233 83.4349 81.5826 83.4661L78.6765 76.6172ZM77.4215 81.1039L78.521 78.3484L79.776 81.1039H77.4196H77.4215Z" fill="#084385"/>
<path d="M20.1017 76.7773V77.4862H17.1178V79.5329H19.8278C20.0007 79.5329 19.9404 80.1716 19.9463 80.3196H17.1198V81.934C17.1198 82.3643 17.7997 82.7597 18.1804 82.7597H20.1833V83.4685H17.7103C17.1897 83.4685 16.3369 82.709 16.3369 82.1696V76.7773H20.1056H20.1017Z" fill="#084385"/>
<path d="M55.8181 82.2966C55.9502 82.5264 55.2722 82.986 55.0974 83.0892C51.8533 85.0249 48.3391 81.358 50.3458 78.1682C51.5289 76.289 54.3961 76.0787 55.822 77.7495C55.2334 78.4934 55.3247 78.1176 54.8332 77.8119C52.4555 76.3377 49.8757 78.5285 50.746 81.1224C51.2705 82.6842 53.1354 83.2742 54.5632 82.5517C54.7555 82.4544 55.282 81.9831 55.3286 81.9753C55.3577 81.9695 55.8026 82.2694 55.8181 82.2947V82.2966Z" fill="#084385"/>
<path d="M38.8525 76.6404C39.6995 76.5528 40.4085 76.7124 41.1389 77.135C41.6207 77.4135 42.1607 77.6725 41.5022 78.1165C41.1991 78.321 41.102 77.9607 40.8572 77.8108C38.5455 76.3775 35.9483 78.4437 36.7234 81.0103C37.2052 82.6032 38.9224 83.242 40.4124 82.6149C40.6746 82.5039 41.2963 81.9879 41.3526 81.9781C41.4458 81.9625 41.9315 82.3384 41.778 82.5643C41.4089 83.1076 40.0899 83.5964 39.4547 83.6236C34.9984 83.8164 34.4913 77.0941 38.8525 76.6423V76.6404Z" fill="#084385"/>
<path d="M83.9401 76.7829V82.4907C83.9401 82.5335 84.0605 82.6659 84.0178 82.7652H86.6869V83.4741H83.1533V76.9017C83.1533 76.7284 83.7905 76.7888 83.9381 76.7829H83.9401Z" fill="#094385"/>
<path d="M57.4004 76.7773H58.1852C58.3076 79.0012 58.2959 81.2427 58.1852 83.4685H57.4004V76.7773Z" fill="#0A4485"/>
<path d="M36.9065 59.9344H35.5331C35.3913 59.9344 34.4258 58.8147 34.2879 58.8381C34.0975 58.9393 33.2564 59.9344 33.1786 59.9344H31.7256L34.3559 57.5742L36.9084 59.9344H36.9065Z" fill="#084385"/>
<path d="M65.9094 14.3226L56.3635 30.9336L42.8372 54.4695C42.7653 54.5941 42.641 54.6545 42.5167 54.6545C42.3923 54.6545 42.2661 54.5941 42.1961 54.4695L28.7242 31.0251L19.1239 14.3226C18.9821 14.0753 19.1608 13.7656 19.4444 13.7656H65.587C65.8725 13.7656 66.0512 14.0753 65.9094 14.3226Z" fill="url(#paint0_linear_7761_928)"/>
<defs>
<linearGradient id="paint0_linear_7761_928" x1="25.414" y1="37.3521" x2="66.315" y2="14.3772" gradientUnits="userSpaceOnUse">
<stop offset="0.15" stop-color="#CE6C39"/>
<stop offset="0.92" stop-color="#DFA242"/>
</linearGradient>
</defs>
</svg>
